<svg xmlns="http://www.w3.org/2000/svg" width="120" height="60" viewBox="0 0 120 60">
  <path id="Path_4300" data-name="Path 4300" d="M-2106.67,325.36l-16.113-21.062,4.175-.068q.268-.052.525-.112a10.988,10.988,0,0,0,8.776-10.524v-.42a10.868,10.868,0,0,0-9.032-10.431,9.955,9.955,0,0,0-1.295-.183h-11.5l-16.333,42.732h3.955l7.69-20.86,8.716-.135,16.26,21.2Zm-27.952-24.062,5.862-15.618,8.513.185s.124.014.34.052a8.431,8.431,0,0,1,7.21,8.164,9.82,9.82,0,0,1-.082,1.48s-.08,4.367-6.505,5.7Zm-72.368-18.611h-.871l-18.63,42.738,4.166,0,5.806-13.377h18.159l5.805,13.388h4.267Zm-8.145,26.168,7.273-16.757.86.016,7.259,16.741Zm32.251,16.488-19.094-42.6,3.775-.095,15.094,33.312.56.055,14.268-33.367.53.027,14.3,33.638.354.027,13.678-33.665h3.8l-17.646,42.668-14.709-34.329Zm-29.192,15.713h5.541v1.316h-7.071V331.579h6.9v1.316h-5.371V336.4h4.691v1.331h-4.691Zm85.475-9.478h8.685v1.316h-3.569v9.478h-1.547v-9.478h-3.569Zm-7.838,0-4.454,10.794h1.615l1.138-2.773h5.031l1.139,2.773h1.614l-4.453-10.794Zm-1.19,6.768,2.006-4.9,2.006,4.9Zm29.137,2.71v1.316h-7.071V331.579h6.9v1.316h-5.371V336.4h4.691v1.331h-4.691v3.321Zm-112.063-6.11a3.211,3.211,0,0,0-3.535-3.368h-4.4v10.794h1.547V338.3h1.512l3.076,4.073h1.852l-3.11-4.057A3.217,3.217,0,0,0-2218.555,334.947Zm-6.39,2.052v-4.1h2.889a1.9,1.9,0,0,1,1.954,2.052c0,1.222-.68,2.052-2.4,2.052Zm75.6-5.42h8.686v1.316h-3.57v9.478h-1.547v-9.478h-3.569Zm-3.248,7.754c0,1.677-1.479,3.227-3.909,3.227-2.465,0-4.114-1.566-4.131-3.243h1.53a2.371,2.371,0,0,0,2.6,1.927c1.512,0,2.362-.909,2.362-1.864,0-1.05-1.037-1.52-2.022-1.755l-1.513-.345c-2.481-.548-2.873-1.9-2.873-2.773,0-1.865,1.819-3.118,3.859-3.118,2.056,0,3.7,1.206,3.7,3.133h-1.53a1.986,1.986,0,0,0-2.226-1.818,2.058,2.058,0,0,0-2.261,1.786c0,.376.136,1.128,1.7,1.5l1.53.376C-2153.786,336.859-2152.6,337.8-2152.6,339.334Zm-34.508,1.724h4.793v1.316h-6.34V331.579h1.546Zm16.813,0h5.541v1.316h-7.071V331.579h6.9v1.316h-5.371V336.4h4.691v1.331h-4.691Zm-28.491-9.478-4.453,10.794h1.615l1.138-2.773h5.031l1.138,2.773h1.615l-4.453-10.794Zm-1.19,6.768,2.006-4.9,2.006,4.9Z" transform="translate(2226.492 -282.561)" fill="#002155"/>
</svg>
