<svg xmlns="http://www.w3.org/2000/svg" width="240" height="78" viewBox="0 0 240 78">
  <g id="Group_2885" data-name="Group 2885" transform="translate(-227 -6613)">
    <g id="Group_2886" data-name="Group 2886" transform="translate(-34 -23)">
      <rect id="Rectangle_1370" data-name="Rectangle 1370" width="240" height="78" transform="translate(261 6636)" fill="none"/>
      <g id="Group_2883" data-name="Group 2883" transform="translate(223.857 3024)" opacity="0.75">
        <g id="youtube-logo" transform="translate(234.083 3625)">
          <g id="Group_30" data-name="Group 30" transform="translate(0)">
            <path id="Path_12" data-name="Path 12" d="M18.9,1.1A3.611,3.611,0,0,0,16.253,0H3.753A3.613,3.613,0,0,0,1.1,1.1,3.612,3.612,0,0,0,0,3.75v12.5A3.613,3.613,0,0,0,1.1,18.9,3.612,3.612,0,0,0,3.753,20h12.5A3.757,3.757,0,0,0,20,16.25V3.75A3.613,3.613,0,0,0,18.9,1.1Zm-7.09,1.79h.872V6.432a1.984,1.984,0,0,0,.013.339q.013.208.209.208.26,0,.547-.4V2.89h.872V7.708h-.873V7.187a1.455,1.455,0,0,1-1,.586.548.548,0,0,1-.56-.352,2.428,2.428,0,0,1-.078-.716V2.89ZM8.519,4.453A1.929,1.929,0,0,1,8.792,3.32a1.169,1.169,0,0,1,1.015-.495,1.212,1.212,0,0,1,1.016.495A1.928,1.928,0,0,1,11.1,4.453V6.146a1.856,1.856,0,0,1-.274,1.133,1.211,1.211,0,0,1-1.016.495,1.169,1.169,0,0,1-1.015-.495,1.929,1.929,0,0,1-.273-1.133ZM6.175,1.237l.69,2.539.664-2.539h.977L7.334,5.091h0V7.708H6.37V5.091a17.888,17.888,0,0,0-.6-2.057l-.3-.9-.313-.9H6.175ZM16.9,16.953a1.831,1.831,0,0,1-.554.951,1.708,1.708,0,0,1-.983.456q-1.784.2-5.365.2t-5.365-.2a1.71,1.71,0,0,1-.983-.456,1.832,1.832,0,0,1-.553-.951,15.964,15.964,0,0,1-.26-3.385,16.3,16.3,0,0,1,.26-3.385,1.8,1.8,0,0,1,.553-.957,1.738,1.738,0,0,1,1-.449A53.314,53.314,0,0,1,10,8.58a53.551,53.551,0,0,1,5.365.2,1.757,1.757,0,0,1,.989.449,1.78,1.78,0,0,1,.56.957,16.679,16.679,0,0,1,.247,3.385A15.966,15.966,0,0,1,16.9,16.953Z" transform="translate(-0.003)" fill="#0a0a0a"/>
            <path id="Path_13" data-name="Path 13" d="M85.651,225.6h1.016v5.508h.964V225.6h1.042v-.911H85.651Z" transform="translate(-81.745 -214.445)" fill="#0a0a0a"/>
            <path id="Path_14" data-name="Path 14" d="M156.36,264.305q-.286.4-.547.4-.182,0-.2-.2a1.962,1.962,0,0,1-.013-.339v-3.516h-.859v3.776a2.212,2.212,0,0,0,.078.7.512.512,0,0,0,.547.365,1.384,1.384,0,0,0,.99-.586v.521h.872v-4.778h-.872Z" transform="translate(-147.688 -248.771)" fill="#0a0a0a"/>
            <path id="Path_15" data-name="Path 15" d="M227.316,226.267a1.157,1.157,0,0,0-.885.521v-2.1h-.872v6.419h.872v-.469a1.179,1.179,0,0,0,.885.534.667.667,0,0,0,.69-.547,3.393,3.393,0,0,0,.091-.95v-1.9a3.474,3.474,0,0,0-.091-.964A.667.667,0,0,0,227.316,226.267Zm-.078,3.477q0,.638-.378.638a.611.611,0,0,1-.43-.208v-2.917a.612.612,0,0,1,.43-.208q.378,0,.378.651Z" transform="translate(-215.271 -214.445)" fill="#0a0a0a"/>
            <path id="Path_16" data-name="Path 16" d="M297.774,262.7c0,.091,0,.163-.006.215s-.007.083-.007.091a.377.377,0,0,1-.391.338q-.443,0-.443-.664v-.846h1.732v-.99a1.865,1.865,0,0,0-.273-1.12,1.169,1.169,0,0,0-1.016-.495,1.238,1.238,0,0,0-1.042.495,1.9,1.9,0,0,0-.26,1.12v1.68a1.831,1.831,0,0,0,.273,1.12,1.252,1.252,0,0,0,1.055.495,1.175,1.175,0,0,0,1.042-.521,1.226,1.226,0,0,0,.2-.521,4.4,4.4,0,0,0,.026-.56v-.117h-.886v.28h0Zm-.846-2.025q0-.664.43-.664t.43.664v.443h-.859Z" transform="translate(-282.566 -247.408)" fill="#0a0a0a"/>
            <path id="Path_17" data-name="Path 17" d="M206.269,82.452q.417,0,.417-.664V79.757q0-.677-.417-.677t-.417.677v2.031Q205.852,82.452,206.269,82.452Z" transform="translate(-196.464 -75.473)" fill="#0a0a0a"/>
          </g>
        </g>
        <g id="twitter-black-shape" transform="translate(185.464 3625)">
          <g id="Group_29" data-name="Group 29" transform="translate(0 0)">
            <path id="Path_11" data-name="Path 11" d="M22.925,44.474q-.175.051-.349.1c-.712.18-.777-.057-.262-.581a4.749,4.749,0,0,0,.612-.765c.4-.618.053-.887-.623-.6q-.361.154-.734.279a3.07,3.07,0,0,1-2.3-.512,5.1,5.1,0,0,0-6.24.732,4.865,4.865,0,0,0-1.477,3.571,5.33,5.33,0,0,0,.032.581c.035.32-.5.552-1.23.449A13.967,13.967,0,0,1,5.87,46.3a14.373,14.373,0,0,1-3.717-2.734c-.513-.525-1.208-.48-1.4.229a5.057,5.057,0,0,0-.172,1.326,4.916,4.916,0,0,0,.609,2.406,5.167,5.167,0,0,0,.71,1c.457.5.387.793-.249.614a8.2,8.2,0,0,1-1.1-.426v.031A4.876,4.876,0,0,0,1.7,51.953a5.023,5.023,0,0,0,1.644,1.315c.658.326.965.508.6.555a5.218,5.218,0,0,1-.67.043q-.228,0-.478-.021c-.263-.022-.311.526.089,1.142A5.053,5.053,0,0,0,4.1,56.281a4.938,4.938,0,0,0,1.625.816c.706.2.848.568.218.945a9.862,9.862,0,0,1-5.172,1.4q-.319,0-.61-.014c-.337-.016-.111.28.539.621a14.015,14.015,0,0,0,6.6,1.6,14.757,14.757,0,0,0,5.047-.851,12.836,12.836,0,0,0,4.031-2.281,15.265,15.265,0,0,0,2.883-3.289,14.671,14.671,0,0,0,1.8-3.883,14.347,14.347,0,0,0,.594-4.055c0-.122,0-.232,0-.328,0-.181.476-.672,1.011-1.174q.362-.34.692-.714C23.845,44.521,23.63,44.268,22.925,44.474Z" transform="translate(-0.003 -41.648)" fill="#0a0a0a"/>
          </g>
        </g>
        <g id="linkedin-letters" transform="translate(139.538 3625)">
          <g id="Group_28" data-name="Group 28" transform="translate(0 0)">
            <rect id="Rectangle_14" data-name="Rectangle 14" width="4.496" height="13.501" transform="translate(0.259 6.499)" fill="#0a0a0a"/>
            <path id="Path_9" data-name="Path 9" d="M163.872,140.877a4.839,4.839,0,0,0-3.747-1.546,5.4,5.4,0,0,0-1.56.211,3.54,3.54,0,0,0-1.185.593,5.076,5.076,0,0,0-1.3,1.429v-1.92H151.6l.014.654q.014.654.014,4.033t-.027,8.815h4.482v-7.534a3.29,3.29,0,0,1,.15-1.1,2.894,2.894,0,0,1,.865-1.165,2.206,2.206,0,0,1,1.438-.47,1.938,1.938,0,0,1,1.723.811,3.942,3.942,0,0,1,.552,2.241v7.221h4.482v-7.738A6.487,6.487,0,0,0,163.872,140.877Z" transform="translate(-144.363 -133.146)" fill="#0a0a0a"/>
            <path id="Path_10" data-name="Path 10" d="M2.534,9.708A2.565,2.565,0,0,0,.7,10.369,2.194,2.194,0,0,0,0,12.038,2.233,2.233,0,0,0,.681,13.7a2.459,2.459,0,0,0,1.8.668h.027A2.567,2.567,0,0,0,4.353,13.7a2.157,2.157,0,0,0,.688-1.662,2.272,2.272,0,0,0-.695-1.669A2.491,2.491,0,0,0,2.534,9.708Z" transform="translate(0 -9.708)" fill="#0a0a0a"/>
          </g>
        </g>
        <g id="instagram" transform="translate(94.538 3625)">
          <g id="Group_23" data-name="Group 23" transform="translate(0 0)">
            <g id="Group_22" data-name="Group 22">
              <path id="Path_7" data-name="Path 7" d="M13.75,0H6.25A6.251,6.251,0,0,0,0,6.25v7.5A6.251,6.251,0,0,0,6.25,20h7.5A6.251,6.251,0,0,0,20,13.75V6.25A6.251,6.251,0,0,0,13.75,0Zm4.375,13.75a4.38,4.38,0,0,1-4.375,4.375H6.25A4.38,4.38,0,0,1,1.875,13.75V6.25A4.38,4.38,0,0,1,6.25,1.875h7.5A4.38,4.38,0,0,1,18.125,6.25Z" fill="#0a0a0a"/>
            </g>
          </g>
          <g id="Group_25" data-name="Group 25" transform="translate(5.62 5.62)">
            <g id="Group_24" data-name="Group 24">
              <path id="Path_8" data-name="Path 8" d="M132.38,128a4.38,4.38,0,1,0,4.38,4.38A4.381,4.381,0,0,0,132.38,128Zm0,7.118a2.738,2.738,0,1,1,2.738-2.738A2.742,2.742,0,0,1,132.38,135.118Z" transform="translate(-128 -128)" fill="#0a0a0a"/>
            </g>
          </g>
          <g id="Group_27" data-name="Group 27" transform="translate(13.81 3.861)">
            <g id="Group_26" data-name="Group 26">
              <ellipse id="Ellipse_3" data-name="Ellipse 3" cx="1.164" cy="1.164" rx="1.164" ry="1.164" fill="#0a0a0a"/>
            </g>
          </g>
        </g>
        <g id="facebook-logo-in-circular-button-outlined-social-symbol" transform="translate(60.203 3625)">
          <g id="Group_21" data-name="Group 21" transform="translate(0 0)">
            <path id="Path_6" data-name="Path 6" d="M229.15,149.856V139.843h3.3l.522-3.318H229.15V134.86c0-.866.284-1.692,1.527-1.692h2.484v-3.312h-3.527c-2.965,0-3.774,1.952-3.774,4.659v2.008h-2.035v3.32h2.035v8.763h3.29Z" transform="translate(-223.825 -129.856)" fill="#0a0a0a"/>
          </g>
        </g>
      </g>
      <g id="Group_2884" data-name="Group 2884" transform="translate(223.857 3059)" opacity="0.75">
        <g id="youtube-logo-2" data-name="youtube-logo" transform="translate(234.083 3625)">
          <g id="Group_30-2" data-name="Group 30" transform="translate(0)">
            <path id="Path_12-2" data-name="Path 12" d="M18.9,1.1A3.611,3.611,0,0,0,16.253,0H3.753A3.613,3.613,0,0,0,1.1,1.1,3.612,3.612,0,0,0,0,3.75v12.5A3.613,3.613,0,0,0,1.1,18.9,3.612,3.612,0,0,0,3.753,20h12.5A3.757,3.757,0,0,0,20,16.25V3.75A3.613,3.613,0,0,0,18.9,1.1Zm-7.09,1.79h.872V6.432a1.984,1.984,0,0,0,.013.339q.013.208.209.208.26,0,.547-.4V2.89h.872V7.708h-.873V7.187a1.455,1.455,0,0,1-1,.586.548.548,0,0,1-.56-.352,2.428,2.428,0,0,1-.078-.716V2.89ZM8.519,4.453A1.929,1.929,0,0,1,8.792,3.32a1.169,1.169,0,0,1,1.015-.495,1.212,1.212,0,0,1,1.016.495A1.928,1.928,0,0,1,11.1,4.453V6.146a1.856,1.856,0,0,1-.274,1.133,1.211,1.211,0,0,1-1.016.495,1.169,1.169,0,0,1-1.015-.495,1.929,1.929,0,0,1-.273-1.133ZM6.175,1.237l.69,2.539.664-2.539h.977L7.334,5.091h0V7.708H6.37V5.091a17.888,17.888,0,0,0-.6-2.057l-.3-.9-.313-.9H6.175ZM16.9,16.953a1.831,1.831,0,0,1-.554.951,1.708,1.708,0,0,1-.983.456q-1.784.2-5.365.2t-5.365-.2a1.71,1.71,0,0,1-.983-.456,1.832,1.832,0,0,1-.553-.951,15.964,15.964,0,0,1-.26-3.385,16.3,16.3,0,0,1,.26-3.385,1.8,1.8,0,0,1,.553-.957,1.738,1.738,0,0,1,1-.449A53.314,53.314,0,0,1,10,8.58a53.551,53.551,0,0,1,5.365.2,1.757,1.757,0,0,1,.989.449,1.78,1.78,0,0,1,.56.957,16.679,16.679,0,0,1,.247,3.385A15.966,15.966,0,0,1,16.9,16.953Z" transform="translate(-0.003)" fill="#4054b2"/>
            <path id="Path_13-2" data-name="Path 13" d="M85.651,225.6h1.016v5.508h.964V225.6h1.042v-.911H85.651Z" transform="translate(-81.745 -214.445)" fill="#4054b2"/>
            <path id="Path_14-2" data-name="Path 14" d="M156.36,264.305q-.286.4-.547.4-.182,0-.2-.2a1.962,1.962,0,0,1-.013-.339v-3.516h-.859v3.776a2.212,2.212,0,0,0,.078.7.512.512,0,0,0,.547.365,1.384,1.384,0,0,0,.99-.586v.521h.872v-4.778h-.872Z" transform="translate(-147.688 -248.771)" fill="#4054b2"/>
            <path id="Path_15-2" data-name="Path 15" d="M227.316,226.267a1.157,1.157,0,0,0-.885.521v-2.1h-.872v6.419h.872v-.469a1.179,1.179,0,0,0,.885.534.667.667,0,0,0,.69-.547,3.393,3.393,0,0,0,.091-.95v-1.9a3.474,3.474,0,0,0-.091-.964A.667.667,0,0,0,227.316,226.267Zm-.078,3.477q0,.638-.378.638a.611.611,0,0,1-.43-.208v-2.917a.612.612,0,0,1,.43-.208q.378,0,.378.651Z" transform="translate(-215.271 -214.445)" fill="#4054b2"/>
            <path id="Path_16-2" data-name="Path 16" d="M297.774,262.7c0,.091,0,.163-.006.215s-.007.083-.007.091a.377.377,0,0,1-.391.338q-.443,0-.443-.664v-.846h1.732v-.99a1.865,1.865,0,0,0-.273-1.12,1.169,1.169,0,0,0-1.016-.495,1.238,1.238,0,0,0-1.042.495,1.9,1.9,0,0,0-.26,1.12v1.68a1.831,1.831,0,0,0,.273,1.12,1.252,1.252,0,0,0,1.055.495,1.175,1.175,0,0,0,1.042-.521,1.226,1.226,0,0,0,.2-.521,4.4,4.4,0,0,0,.026-.56v-.117h-.886v.28h0Zm-.846-2.025q0-.664.43-.664t.43.664v.443h-.859Z" transform="translate(-282.566 -247.408)" fill="#4054b2"/>
            <path id="Path_17-2" data-name="Path 17" d="M206.269,82.452q.417,0,.417-.664V79.757q0-.677-.417-.677t-.417.677v2.031Q205.852,82.452,206.269,82.452Z" transform="translate(-196.464 -75.473)" fill="#4054b2"/>
          </g>
        </g>
        <g id="twitter-black-shape-2" data-name="twitter-black-shape" transform="translate(185.464 3625)">
          <g id="Group_29-2" data-name="Group 29" transform="translate(0 0)">
            <path id="Path_11-2" data-name="Path 11" d="M22.925,44.474q-.175.051-.349.1c-.712.18-.777-.057-.262-.581a4.749,4.749,0,0,0,.612-.765c.4-.618.053-.887-.623-.6q-.361.154-.734.279a3.07,3.07,0,0,1-2.3-.512,5.1,5.1,0,0,0-6.24.732,4.865,4.865,0,0,0-1.477,3.571,5.33,5.33,0,0,0,.032.581c.035.32-.5.552-1.23.449A13.967,13.967,0,0,1,5.87,46.3a14.373,14.373,0,0,1-3.717-2.734c-.513-.525-1.208-.48-1.4.229a5.057,5.057,0,0,0-.172,1.326,4.916,4.916,0,0,0,.609,2.406,5.167,5.167,0,0,0,.71,1c.457.5.387.793-.249.614a8.2,8.2,0,0,1-1.1-.426v.031A4.876,4.876,0,0,0,1.7,51.953a5.023,5.023,0,0,0,1.644,1.315c.658.326.965.508.6.555a5.218,5.218,0,0,1-.67.043q-.228,0-.478-.021c-.263-.022-.311.526.089,1.142A5.053,5.053,0,0,0,4.1,56.281a4.938,4.938,0,0,0,1.625.816c.706.2.848.568.218.945a9.862,9.862,0,0,1-5.172,1.4q-.319,0-.61-.014c-.337-.016-.111.28.539.621a14.015,14.015,0,0,0,6.6,1.6,14.757,14.757,0,0,0,5.047-.851,12.836,12.836,0,0,0,4.031-2.281,15.265,15.265,0,0,0,2.883-3.289,14.671,14.671,0,0,0,1.8-3.883,14.347,14.347,0,0,0,.594-4.055c0-.122,0-.232,0-.328,0-.181.476-.672,1.011-1.174q.362-.34.692-.714C23.845,44.521,23.63,44.268,22.925,44.474Z" transform="translate(-0.003 -41.648)" fill="#4054b2"/>
          </g>
        </g>
        <g id="linkedin-letters-2" data-name="linkedin-letters" transform="translate(139.538 3625)">
          <g id="Group_28-2" data-name="Group 28" transform="translate(0 0)">
            <rect id="Rectangle_14-2" data-name="Rectangle 14" width="4.496" height="13.501" transform="translate(0.259 6.499)" fill="#4054b2"/>
            <path id="Path_9-2" data-name="Path 9" d="M163.872,140.877a4.839,4.839,0,0,0-3.747-1.546,5.4,5.4,0,0,0-1.56.211,3.54,3.54,0,0,0-1.185.593,5.076,5.076,0,0,0-1.3,1.429v-1.92H151.6l.014.654q.014.654.014,4.033t-.027,8.815h4.482v-7.534a3.29,3.29,0,0,1,.15-1.1,2.894,2.894,0,0,1,.865-1.165,2.206,2.206,0,0,1,1.438-.47,1.938,1.938,0,0,1,1.723.811,3.942,3.942,0,0,1,.552,2.241v7.221h4.482v-7.738A6.487,6.487,0,0,0,163.872,140.877Z" transform="translate(-144.363 -133.146)" fill="#4054b2"/>
            <path id="Path_10-2" data-name="Path 10" d="M2.534,9.708A2.565,2.565,0,0,0,.7,10.369,2.194,2.194,0,0,0,0,12.038,2.233,2.233,0,0,0,.681,13.7a2.459,2.459,0,0,0,1.8.668h.027A2.567,2.567,0,0,0,4.353,13.7a2.157,2.157,0,0,0,.688-1.662,2.272,2.272,0,0,0-.695-1.669A2.491,2.491,0,0,0,2.534,9.708Z" transform="translate(0 -9.708)" fill="#4054b2"/>
          </g>
        </g>
        <g id="instagram-2" data-name="instagram" transform="translate(94.538 3625)">
          <g id="Group_23-2" data-name="Group 23" transform="translate(0 0)">
            <g id="Group_22-2" data-name="Group 22">
              <path id="Path_7-2" data-name="Path 7" d="M13.75,0H6.25A6.251,6.251,0,0,0,0,6.25v7.5A6.251,6.251,0,0,0,6.25,20h7.5A6.251,6.251,0,0,0,20,13.75V6.25A6.251,6.251,0,0,0,13.75,0Zm4.375,13.75a4.38,4.38,0,0,1-4.375,4.375H6.25A4.38,4.38,0,0,1,1.875,13.75V6.25A4.38,4.38,0,0,1,6.25,1.875h7.5A4.38,4.38,0,0,1,18.125,6.25Z" fill="#4054b2"/>
            </g>
          </g>
          <g id="Group_25-2" data-name="Group 25" transform="translate(5.62 5.62)">
            <g id="Group_24-2" data-name="Group 24">
              <path id="Path_8-2" data-name="Path 8" d="M132.38,128a4.38,4.38,0,1,0,4.38,4.38A4.381,4.381,0,0,0,132.38,128Zm0,7.118a2.738,2.738,0,1,1,2.738-2.738A2.742,2.742,0,0,1,132.38,135.118Z" transform="translate(-128 -128)" fill="#4054b2"/>
            </g>
          </g>
          <g id="Group_27-2" data-name="Group 27" transform="translate(13.81 3.861)">
            <g id="Group_26-2" data-name="Group 26">
              <ellipse id="Ellipse_3-2" data-name="Ellipse 3" cx="1.164" cy="1.164" rx="1.164" ry="1.164" fill="#4054b2"/>
            </g>
          </g>
        </g>
        <g id="facebook-logo-in-circular-button-outlined-social-symbol-2" data-name="facebook-logo-in-circular-button-outlined-social-symbol" transform="translate(60.203 3625)">
          <g id="Group_21-2" data-name="Group 21" transform="translate(0 0)">
            <path id="Path_6-2" data-name="Path 6" d="M229.15,149.856V139.843h3.3l.522-3.318H229.15V134.86c0-.866.284-1.692,1.527-1.692h2.484v-3.312h-3.527c-2.965,0-3.774,1.952-3.774,4.659v2.008h-2.035v3.32h2.035v8.763h3.29Z" transform="translate(-223.825 -129.856)" fill="#4054b2"/>
          </g>
        </g>
      </g>
    </g>
  </g>
</svg>
